<svg xmlns="http://www.w3.org/2000/svg" viewBox="0 0 60 60">
  <!-- Blue background -->
  <rect width="60" height="60" fill="#4A90E2" />

  <!-- Sun -->
  <circle cx="22" cy="22" r="10" fill="#FFD700" />

  <!-- Sun rays -->
  <line x1="22" y1="8" x2="22" y2="5" stroke="#FFD700" stroke-width="2" stroke-linecap="round" />
  <line x1="22" y1="39" x2="22" y2="36" stroke="#FFD700" stroke-width="2" stroke-linecap="round" />
  <line x1="8" y1="22" x2="5" y2="22" stroke="#FFD700" stroke-width="2" stroke-linecap="round" />
  <line x1="39" y1="22" x2="36" y2="22" stroke="#FFD700" stroke-width="2" stroke-linecap="round" />
  <line x1="12" y1="12" x2="10" y2="10" stroke="#FFD700" stroke-width="2" stroke-linecap="round" />
  <line x1="34" y1="34" x2="32" y2="32" stroke="#FFD700" stroke-width="2" stroke-linecap="round" />
  <line x1="12" y1="32" x2="10" y2="34" stroke="#FFD700" stroke-width="2" stroke-linecap="round" />
  <line x1="34" y1="10" x2="32" y2="12" stroke="#FFD700" stroke-width="2" stroke-linecap="round" />

  <!-- Cloud -->
  <path d="M46,40 C46,33.5 41,28 34.5,28 C29.5,28 25.2,31 23.5,35.2 C22.7,35 21.9,34.8 21,34.8 C16.6,34.8 13,38.4 13,43 C13,47.6 16.6,51 21,51 L46,51 C50.4,51 54,47.4 54,43 C54,38.6 50.4,35 46,35 C46,35 46,37.5 46,40 Z" fill="#FFFFFF" stroke="#DDDDDD" stroke-width="1" />

  <!-- Grass/ground -->
  <path d="M0,50 L60,50 L60,60 L0,60 Z" fill="#4CAF50" />
</svg>